<svg width="35" height="34" viewBox="0 0 35 34" fill="none" xmlns="http://www.w3.org/2000/svg">
<g id="Group 458">
<path id="Vector" d="M25.7964 25.3784C30.4685 20.7064 30.4685 13.1315 25.7964 8.45949C21.1244 3.78747 13.5496 3.78747 8.87754 8.4595C4.20551 13.1315 4.20552 20.7064 8.87754 25.3784C13.5496 30.0504 21.1244 30.0504 25.7964 25.3784Z" fill="#FDDA74"/>
<path id="Vector_2" d="M26.1723 17.0615C26.1723 21.9381 22.216 25.8944 17.3394 25.8944C12.4629 25.8944 8.50659 21.9381 8.50659 17.0615H26.1723Z" fill="#3C3C3B"/>
<path id="Vector_3" d="M17.3394 20.3555C14.8108 20.3555 12.5403 21.4219 10.9233 23.1249C12.5317 24.8278 14.8108 25.8943 17.3394 25.8943C19.868 25.8943 22.1386 24.8278 23.7555 23.1249C22.1472 21.4219 19.868 20.3555 17.3394 20.3555Z" fill="#F25268"/>
<path id="Vector_4" d="M9.10013 14.4807C8.88511 14.4807 8.68729 14.3259 8.64429 14.1109C8.59269 13.8529 8.7561 13.6121 9.00552 13.5519L12.6178 12.8036L9.88278 11.2641C9.65917 11.1351 9.57316 10.8513 9.70217 10.6277C9.83118 10.4041 10.115 10.318 10.3386 10.447L14.1659 12.5972C14.3379 12.6918 14.4325 12.881 14.3981 13.0788C14.3723 13.2767 14.2175 13.4229 14.0283 13.4659L9.19474 14.4721C9.19474 14.4721 9.12593 14.4807 9.10013 14.4807Z" fill="#3C3C3B"/>
<path id="Vector_5" d="M25.5789 14.4807C25.5789 14.4807 25.5187 14.4807 25.4842 14.4721L20.6507 13.4659C20.4615 13.4229 20.3153 13.2681 20.2809 13.0788C20.2551 12.881 20.3411 12.6918 20.5131 12.5972L24.3404 10.447C24.564 10.318 24.8564 10.4041 24.9768 10.6277C25.1058 10.8513 25.0198 11.1437 24.7962 11.2641L22.0612 12.8036L25.6735 13.5519C25.9315 13.6035 26.0863 13.8529 26.0347 14.1109C25.9917 14.3345 25.7939 14.4807 25.5789 14.4807Z" fill="#3C3C3B"/>
</g>
</svg>
