<svg width="29" height="28" viewBox="0 0 29 28" fill="none" xmlns="http://www.w3.org/2000/svg">
<g id="Group 456">
<path id="Vector" d="M26.493 15.8444C27.5562 9.32325 23.1317 3.17492 16.6105 2.11172C10.0894 1.04852 3.94106 5.47305 2.87786 11.9942C1.81466 18.5153 6.23919 24.6637 12.7603 25.7269C19.2815 26.7901 25.4298 22.3655 26.493 15.8444Z" fill="#F25268"/>
<path id="Vector_2" d="M14.6801 21.0362L20.5543 16.2801C21.1994 15.7554 21.724 15.0502 21.982 14.2331C23.0571 10.8531 19.9953 7.2322 16.3572 8.6513C15.3768 9.03833 14.6715 10.3198 14.6715 10.3198C14.6715 10.3198 13.9663 9.03833 12.9858 8.6513C9.35632 7.2322 6.2859 10.8531 7.36098 14.2331C7.6276 15.0588 8.14363 15.7554 8.78868 16.2801L14.6629 21.0362H14.6801Z" fill="white"/>
</g>
</svg>
