<svg width="29" height="30" viewBox="0 0 29 30" fill="none" xmlns="http://www.w3.org/2000/svg">
<g id="Group 457">
<path id="Vector" d="M26.093 17.7787C27.6724 11.363 23.7519 4.88168 17.3362 3.30227C10.9205 1.72286 4.43918 5.64345 2.85977 12.0591C1.28036 18.4748 5.20095 24.9561 11.6166 26.5356C18.0323 28.115 24.5136 24.1944 26.093 17.7787Z" fill="#4080FF"/>
<path id="Vector_2" d="M10.8958 13.041H7.7738V20.0591H10.8958V13.041Z" fill="white"/>
<path id="Vector_3" d="M20.1501 13.9609C20.4597 13.7631 20.6661 13.4277 20.6661 13.0321C20.6661 12.43 20.1759 11.9398 19.5738 11.9398H16.2196C16.2626 11.2431 16.2884 10.1251 16.168 9.04138C15.9702 7.28685 14.121 8.0695 14.121 8.0695C15.0929 10.2111 12.0741 14.0125 12.0741 14.0125V19.689H18.3268C18.9288 19.689 19.419 19.1987 19.419 18.5967C19.419 18.2957 19.2986 18.0204 19.1008 17.8226C19.634 17.7452 20.0469 17.298 20.0469 16.7389C20.0469 16.4379 19.9265 16.1627 19.7287 15.9649C20.2619 15.8875 20.6747 15.4402 20.6747 14.8812C20.6747 14.4942 20.4683 14.1501 20.1587 13.9523L20.1501 13.9609Z" fill="white"/>
</g>
</svg>
