<svg width="18" height="18" viewBox="0 0 18 18" fill="none" xmlns="http://www.w3.org/2000/svg">
<g id="message-circle-01">
<path id="Icon" d="M15.75 8.625C15.75 12.1458 12.8958 15 9.37496 15C8.56738 15 7.79487 14.8498 7.08383 14.5759C6.95383 14.5258 6.88883 14.5008 6.83714 14.4889C6.7863 14.4771 6.74949 14.4722 6.69736 14.4703C6.64435 14.4682 6.5862 14.4742 6.46989 14.4863L2.62912 14.8833C2.26294 14.9211 2.07985 14.9401 1.97184 14.8742C1.87777 14.8168 1.8137 14.7209 1.79665 14.6121C1.77706 14.4871 1.86456 14.3252 2.03954 14.0013L3.26628 11.7306C3.36731 11.5436 3.41782 11.4501 3.4407 11.3602C3.4633 11.2714 3.46876 11.2074 3.46153 11.1161C3.45421 11.0236 3.41364 10.9032 3.33249 10.6625C3.11685 10.0227 2.99996 9.3375 2.99996 8.625C2.99996 5.10418 5.85415 2.25 9.37496 2.25C12.8958 2.25 15.75 5.10418 15.75 8.625Z" stroke="white" stroke-width="2" stroke-linecap="round" stroke-linejoin="round"/>
</g>
</svg>
