<svg width="20" height="22" viewBox="0 0 20 22" fill="none" xmlns="http://www.w3.org/2000/svg">
<path id="Icon" d="M11.739 20.5H7.73903M15.739 7.5C15.739 5.9087 15.1069 4.38258 13.9817 3.25736C12.8565 2.13214 11.3303 1.5 9.73903 1.5C8.14773 1.5 6.62161 2.13214 5.49639 3.25736C4.37117 4.38258 3.73903 5.9087 3.73903 7.5C3.73903 10.5902 2.9595 12.706 2.0887 14.1054C1.35416 15.2859 0.986891 15.8761 1.00036 16.0408C1.01527 16.2231 1.05389 16.2926 1.20081 16.4016C1.33349 16.5 1.93162 16.5 3.12789 16.5H16.3502C17.5464 16.5 18.1446 16.5 18.2773 16.4016C18.4242 16.2926 18.4628 16.2231 18.4777 16.0408C18.4912 15.8761 18.1239 15.2859 17.3894 14.1054C16.5186 12.706 15.739 10.5902 15.739 7.5Z" stroke="#C02727" stroke-width="2" stroke-linecap="round" stroke-linejoin="round"/>
</svg>
