<svg width="10" height="10" viewBox="0 0 10 10" fill="none" xmlns="http://www.w3.org/2000/svg">
<g id="player-play-filled">
<path id="Vector" d="M2.5 1.66678V8.33345C2.49998 8.40759 2.51974 8.48039 2.55724 8.54434C2.59475 8.60829 2.64863 8.66108 2.71334 8.69726C2.77805 8.73344 2.85125 8.75169 2.92537 8.75014C2.99949 8.7486 3.07186 8.7273 3.135 8.68845L8.55167 5.35512C8.61233 5.31784 8.66243 5.26564 8.69719 5.20349C8.73194 5.14134 8.75019 5.07132 8.75019 5.00012C8.75019 4.92891 8.73194 4.8589 8.69719 4.79675C8.66243 4.7346 8.61233 4.6824 8.55167 4.64512L3.135 1.31178C3.07186 1.27294 2.99949 1.25164 2.92537 1.25009C2.85125 1.24854 2.77805 1.2668 2.71334 1.30298C2.64863 1.33915 2.59475 1.39194 2.55724 1.45589C2.51974 1.51985 2.49998 1.59265 2.5 1.66678Z" fill="#626262"/>
</g>
</svg>
