<svg width="28" height="28" viewBox="0 0 28 28" fill="none" xmlns="http://www.w3.org/2000/svg">
<g id="square-rounded-plus-filled">
<path id="Vector" d="M14.0002 2.33301L14.3782 2.33417L14.7492 2.33884L15.4678 2.35867L15.8167 2.37384L16.4922 2.41351L17.1373 2.46717C22.7198 3.00851 24.9913 5.28001 25.5327 10.8625L25.5863 11.5077L25.626 12.1832C25.6318 12.2975 25.6377 12.4142 25.6412 12.532L25.661 13.2507L25.6668 13.9997L25.661 14.7487L25.6412 15.4673L25.626 15.8162L25.5863 16.4917L25.5327 17.1368C24.9913 22.7193 22.7198 24.9908 17.1373 25.5322L16.4922 25.5858L15.8167 25.6255C15.7023 25.6313 15.5857 25.6372 15.4678 25.6407L14.7492 25.6605L14.0002 25.6663L13.2512 25.6605L12.5325 25.6407L12.1837 25.6255L11.5082 25.5858L10.863 25.5322C5.2805 24.9908 3.009 22.7193 2.46766 17.1368L2.414 16.4917L2.37433 15.8162C2.36865 15.6999 2.3636 15.5836 2.35916 15.4673L2.33933 14.7487C2.33583 14.5037 2.3335 14.254 2.3335 13.9997L2.33466 13.6217L2.33933 13.2507L2.35916 12.532L2.37433 12.1832L2.414 11.5077L2.46766 10.8625C3.009 5.28001 5.2805 3.00851 10.863 2.46717L11.5082 2.41351L12.1837 2.37384C12.298 2.36801 12.4147 2.36217 12.5325 2.35867L13.2512 2.33884C13.4962 2.33534 13.7458 2.33301 14.0002 2.33301ZM14.0002 9.33301C13.6907 9.33301 13.394 9.45592 13.1752 9.67472C12.9564 9.89351 12.8335 10.1903 12.8335 10.4997V12.833H10.5002L10.3637 12.8412C10.0684 12.8763 9.79766 13.0228 9.6068 13.2509C9.41595 13.4789 9.31937 13.7712 9.33679 14.068C9.35422 14.3649 9.48434 14.6439 9.70057 14.848C9.91679 15.0521 10.2028 15.166 10.5002 15.1663H12.8335V17.4997L12.8417 17.6362C12.8768 17.9315 13.0233 18.2022 13.2514 18.393C13.4794 18.5839 13.7717 18.6805 14.0685 18.663C14.3654 18.6456 14.6444 18.5155 14.8485 18.2993C15.0526 18.083 15.1665 17.797 15.1668 17.4997V15.1663H17.5002L17.6367 15.1582C17.9319 15.1231 18.2027 14.9765 18.3935 14.7485C18.5844 14.5204 18.681 14.2282 18.6635 13.9313C18.6461 13.6345 18.516 13.3555 18.2998 13.1513C18.0835 12.9472 17.7975 12.8333 17.5002 12.833H15.1668V10.4997L15.1587 10.3632C15.1252 10.0794 14.9888 9.81773 14.7753 9.62784C14.5617 9.43796 14.2859 9.33305 14.0002 9.33301Z" fill="#C02727"/>
</g>
</svg>
