<svg width="25" height="25" viewBox="0 0 25 25" fill="none" xmlns="http://www.w3.org/2000/svg">
<g id="ticket">
<path id="Vector" d="M15.5 5.5V7.5M15.5 11.5V13.5M15.5 17.5V19.5M5.5 5.5H19.5C20.0304 5.5 20.5391 5.71071 20.9142 6.08579C21.2893 6.46086 21.5 6.96957 21.5 7.5V10.5C20.9696 10.5 20.4609 10.7107 20.0858 11.0858C19.7107 11.4609 19.5 11.9696 19.5 12.5C19.5 13.0304 19.7107 13.5391 20.0858 13.9142C20.4609 14.2893 20.9696 14.5 21.5 14.5V17.5C21.5 18.0304 21.2893 18.5391 20.9142 18.9142C20.5391 19.2893 20.0304 19.5 19.5 19.5H5.5C4.96957 19.5 4.46086 19.2893 4.08579 18.9142C3.71071 18.5391 3.5 18.0304 3.5 17.5V14.5C4.03043 14.5 4.53914 14.2893 4.91421 13.9142C5.28929 13.5391 5.5 13.0304 5.5 12.5C5.5 11.9696 5.28929 11.4609 4.91421 11.0858C4.53914 10.7107 4.03043 10.5 3.5 10.5V7.5C3.5 6.96957 3.71071 6.46086 4.08579 6.08579C4.46086 5.71071 4.96957 5.5 5.5 5.5Z" stroke="white" stroke-width="2" stroke-linecap="round" stroke-linejoin="round"/>
</g>
</svg>
